<?xml version="1.0" encoding="UTF-8"?>
<svg xmlns="http://www.w3.org/2000/svg" xmlns:xlink="http://www.w3.org/1999/xlink" width="48px" height="48px" viewBox="0 0 48 48" version="1.1">
<defs>
<linearGradient id="linear0" gradientUnits="userSpaceOnUse" x1="26.648937" y1="20.603781" x2="135.665253" y2="114.397667" gradientTransform="matrix(0.259634,0,0,0.21637,-6.918979,-4.458046)">
<stop offset="0" style="stop-color:rgb(35.294118%,62.352941%,83.137255%);stop-opacity:1;"/>
<stop offset="1" style="stop-color:rgb(18.823529%,41.176471%,59.607843%);stop-opacity:1;"/>
</linearGradient>
<linearGradient id="linear1" gradientUnits="userSpaceOnUse" x1="150.961105" y1="192.351761" x2="112.031441" y2="137.272995" gradientTransform="matrix(0.259634,0,0,0.21637,-6.918979,-4.458046)">
<stop offset="0" style="stop-color:rgb(100%,83.137255%,23.137255%);stop-opacity:1;"/>
<stop offset="1" style="stop-color:rgb(100%,90.980392%,45.098039%);stop-opacity:1;"/>
</linearGradient>
<filter id="alpha" filterUnits="objectBoundingBox" x="0%" y="0%" width="100%" height="100%">
  <feColorMatrix type="matrix" in="SourceGraphic" values="0 0 0 0 1 0 0 0 0 1 0 0 0 0 1 0 0 0 1 0"/>
</filter>
<mask id="mask0">
  <g filter="url(#alpha)">
<rect x="0" y="0" width="48" height="48" style="fill:rgb(0%,0%,0%);fill-opacity:0.443137;stroke:none;"/>
  </g>
</mask>
<radialGradient id="radial0" gradientUnits="userSpaceOnUse" cx="61.518883" cy="132.285751" fx="61.518883" fy="132.285751" r="29.036913" gradientTransform="matrix(0.00000000807257,-0.0914084,0.48677,0.00000014444,-38.631138,54.27124)">
<stop offset="0" style="stop-color:rgb(72.156863%,72.156863%,72.156863%);stop-opacity:0.498039;"/>
<stop offset="1" style="stop-color:rgb(49.803922%,49.803922%,49.803922%);stop-opacity:0;"/>
</radialGradient>
<clipPath id="clip1">
  <rect x="0" y="0" width="48" height="48"/>
</clipPath>
<g id="surface5" clip-path="url(#clip1)">
<path style=" stroke:none;fill-rule:nonzero;fill:url(#radial0);" d="M 42.34375 48.648438 C 42.34375 47.183594 34.921875 45.992188 25.761719 45.992188 C 16.601562 45.992188 9.179688 47.183594 9.179688 48.648438 C 9.179688 50.113281 16.601562 51.300781 25.761719 51.300781 C 34.921875 51.300781 42.34375 50.113281 42.34375 48.648438 Z M 42.34375 48.648438 "/>
</g>
</defs>
<g id="surface1">
<path style=" stroke:none;fill-rule:nonzero;fill:url(#linear0);" d="M 25.347656 0 C 23.230469 0.0078125 21.210938 0.15625 19.433594 0.417969 C 14.195312 1.179688 13.246094 2.777344 13.246094 5.726562 L 13.246094 9.621094 L 25.621094 9.621094 L 25.621094 10.917969 L 8.601562 10.917969 C 5.003906 10.917969 1.855469 12.703125 0.871094 16.09375 C -0.265625 19.984375 -0.316406 22.414062 0.871094 26.476562 C 1.75 29.5 3.851562 31.65625 7.449219 31.65625 L 11.703125 31.65625 L 11.703125 26.988281 C 11.703125 23.617188 15.238281 20.644531 19.433594 20.644531 L 31.792969 20.644531 C 35.234375 20.644531 37.980469 18.304688 37.980469 15.453125 L 37.980469 5.726562 C 37.980469 2.957031 35.152344 0.878906 31.792969 0.417969 C 29.667969 0.125 27.460938 -0.0078125 25.347656 0 Z M 18.65625 3.132812 C 19.933594 3.132812 20.976562 4.007812 20.976562 5.082031 C 20.976562 6.15625 19.933594 7.023438 18.65625 7.023438 C 17.371094 7.023438 16.332031 6.15625 16.332031 5.082031 C 16.332031 4.007812 17.371094 3.132812 18.65625 3.132812 Z M 18.65625 3.132812 "/>
<path style=" stroke:none;fill-rule:nonzero;fill:url(#linear1);" d="M 39.523438 10.917969 L 39.523438 15.453125 C 39.523438 18.96875 35.914062 21.929688 31.792969 21.929688 L 19.433594 21.929688 C 16.046875 21.929688 13.246094 24.320312 13.246094 27.121094 L 13.246094 36.84375 C 13.246094 39.613281 16.164062 41.242188 19.433594 42.035156 C 23.351562 42.988281 27.105469 43.160156 31.792969 42.035156 C 34.910156 41.292969 37.980469 39.792969 37.980469 36.84375 L 37.980469 32.953125 L 25.621094 32.953125 L 25.621094 31.65625 L 44.167969 31.65625 C 47.765625 31.65625 49.105469 29.585938 50.355469 26.476562 C 51.648438 23.277344 51.59375 20.199219 50.355469 16.09375 C 49.46875 13.140625 47.769531 10.917969 44.167969 10.917969 Z M 32.574219 35.546875 C 33.855469 35.546875 34.894531 36.414062 34.894531 37.488281 C 34.894531 38.566406 33.855469 39.441406 32.574219 39.441406 C 31.292969 39.441406 30.25 38.566406 30.25 37.488281 C 30.25 36.414062 31.292969 35.546875 32.574219 35.546875 Z M 32.574219 35.546875 "/>
<use xlink:href="#surface5" mask="url(#mask0)"/>
</g>
</svg>
